solid OpenSCAD_Model
  facet normal -1 0 0
    outer loop
      vertex 0 0 0
      vertex 0 0 24
      vertex 0 24 0
    endloop
  endfacet
  facet normal -1 0 0
    outer loop
      vertex 0 24 0
      vertex 0 0 24
      vertex 0 24 24
    endloop
  endfacet
  facet normal 0 -1 0
    outer loop
      vertex 0 0 24
      vertex 0 0 0
      vertex 24 0 0
    endloop
  endfacet
  facet normal 0 -1 0
    outer loop
      vertex 24 0 24
      vertex 0 0 24
      vertex 24 0 0
    endloop
  endfacet
  facet normal 0 0 -1
    outer loop
      vertex 0 0 0
      vertex 0 24 0
      vertex 24 0 0
    endloop
  endfacet
  facet normal 0 0 -1
    outer loop
      vertex 24 0 0
      vertex 0 24 0
      vertex 24 24 0
    endloop
  endfacet
  facet normal 0 1 0
    outer loop
      vertex 0 24 0
      vertex 0 24 24
      vertex 24 24 0
    endloop
  endfacet
  facet normal 0 1 0
    outer loop
      vertex 24 24 0
      vertex 0 24 24
      vertex 24 24 24
    endloop
  endfacet
  facet normal 0 0 1
    outer loop
      vertex 1 1 24
      vertex 0 0 24
      vertex 24 0 24
    endloop
  endfacet
  facet normal 0 0 1
    outer loop
      vertex 1 23 24
      vertex 0 24 24
      vertex 1 1 24
    endloop
  endfacet
  facet normal 0 0 1
    outer loop
      vertex 23 1 24
      vertex 1 1 24
      vertex 24 0 24
    endloop
  endfacet
  facet normal 0 0 1
    outer loop
      vertex 0 24 24
      vertex 0 0 24
      vertex 1 1 24
    endloop
  endfacet
  facet normal 0 0 1
    outer loop
      vertex 24 24 24
      vertex 0 24 24
      vertex 1 23 24
    endloop
  endfacet
  facet normal 0 0 1
    outer loop
      vertex 24 24 24
      vertex 23 23 24
      vertex 24 0 24
    endloop
  endfacet
  facet normal 0 0 1
    outer loop
      vertex 24 24 24
      vertex 1 23 24
      vertex 23 23 24
    endloop
  endfacet
  facet normal 0 0 1
    outer loop
      vertex 23 23 24
      vertex 23 1 24
      vertex 24 0 24
    endloop
  endfacet
  facet normal 1 0 0
    outer loop
      vertex 24 0 24
      vertex 24 0 0
      vertex 24 24 0
    endloop
  endfacet
  facet normal 1 0 0
    outer loop
      vertex 24 24 24
      vertex 24 0 24
      vertex 24 24 0
    endloop
  endfacet
  facet normal 1 0 0
    outer loop
      vertex 1 23 4
      vertex 1 23 24
      vertex 1 1 24
    endloop
  endfacet
  facet normal 1 0 0
    outer loop
      vertex 1 1 4
      vertex 1 23 4
      vertex 1 1 24
    endloop
  endfacet
  facet normal 0 1 0
    outer loop
      vertex 23 1 24
      vertex 23 1 4
      vertex 1 1 24
    endloop
  endfacet
  facet normal 0 1 0
    outer loop
      vertex 1 1 24
      vertex 23 1 4
      vertex 1 1 4
    endloop
  endfacet
  facet normal -1 0 0
    outer loop
      vertex 23 23 24
      vertex 23 23 4
      vertex 23 1 24
    endloop
  endfacet
  facet normal -1 0 0
    outer loop
      vertex 23 1 24
      vertex 23 23 4
      vertex 23 1 4
    endloop
  endfacet
  facet normal 0 -1 0
    outer loop
      vertex 23 23 4
      vertex 23 23 24
      vertex 1 23 24
    endloop
  endfacet
  facet normal 0 -1 0
    outer loop
      vertex 1 23 4
      vertex 23 23 4
      vertex 1 23 24
    endloop
  endfacet
  facet normal 0 0 1
    outer loop
      vertex 23 1 4
      vertex 23 23 4
      vertex 1 23 4
    endloop
  endfacet
  facet normal 0 0 1
    outer loop
      vertex 1 1 4
      vertex 23 1 4
      vertex 1 23 4
    endloop
  endfacet
endsolid OpenSCAD_Model
