solid OpenSCAD_Model
  facet normal -1 0 0
    outer loop
      vertex 0 10.3683 14.4635
      vertex 0 0 24
      vertex 0 24 24
    endloop
  endfacet
  facet normal -1 0 0
    outer loop
      vertex 0 12.1317 14.4635
      vertex 0 10.3683 14.4635
      vertex 0 24 24
    endloop
  endfacet
  facet normal -1 0 0
    outer loop
      vertex 0 0 0
      vertex 0 0 24
      vertex 0 9.82341 12.7865
    endloop
  endfacet
  facet normal -1 0 0
    outer loop
      vertex 0 0 0
      vertex 0 9.82341 12.7865
      vertex 0 24 0
    endloop
  endfacet
  facet normal -1 0 0
    outer loop
      vertex 0 12.6766 12.7865
      vertex 0 24 0
      vertex 0 11.25 11.75
    endloop
  endfacet
  facet normal -1 0 0
    outer loop
      vertex 0 9.82341 12.7865
      vertex 0 11.25 11.75
      vertex 0 24 0
    endloop
  endfacet
  facet normal -1 0 0
    outer loop
      vertex 0 24 0
      vertex 0 12.6766 12.7865
      vertex 0 24 24
    endloop
  endfacet
  facet normal -1 0 0
    outer loop
      vertex 0 12.6766 12.7865
      vertex 0 12.1317 14.4635
      vertex 0 24 24
    endloop
  endfacet
  facet normal -1 0 0
    outer loop
      vertex 0 9.82341 12.7865
      vertex 0 0 24
      vertex 0 10.3683 14.4635
    endloop
  endfacet
  facet normal 0 -1 0
    outer loop
      vertex 10.0365 0 12.3683
      vertex 0 0 0
      vertex 24 0 0
    endloop
  endfacet
  facet normal 0 -1 0
    outer loop
      vertex 11.7135 0 11.8234
      vertex 10.0365 0 12.3683
      vertex 24 0 0
    endloop
  endfacet
  facet normal 0 -1 0
    outer loop
      vertex 0 0 24
      vertex 0 0 0
      vertex 10.0365 0 12.3683
    endloop
  endfacet
  facet normal 0 -1 0
    outer loop
      vertex 24 0 24
      vertex 0 0 24
      vertex 10.0365 0 14.1317
    endloop
  endfacet
  facet normal 0 -1 0
    outer loop
      vertex 24 0 24
      vertex 11.7135 0 14.6766
      vertex 24 0 0
    endloop
  endfacet
  facet normal 0 -1 0
    outer loop
      vertex 24 0 24
      vertex 10.0365 0 14.1317
      vertex 11.7135 0 14.6766
    endloop
  endfacet
  facet normal 0 -1 0
    outer loop
      vertex 11.7135 0 14.6766
      vertex 12.75 0 13.25
      vertex 24 0 0
    endloop
  endfacet
  facet normal 0 -1 0
    outer loop
      vertex 12.75 0 13.25
      vertex 11.7135 0 11.8234
      vertex 24 0 0
    endloop
  endfacet
  facet normal 0 -1 0
    outer loop
      vertex 10.0365 0 12.3683
      vertex 10.0365 0 14.1317
      vertex 0 0 24
    endloop
  endfacet
  facet normal 0 0 -1
    outer loop
      vertex 0 0 0
      vertex 0 24 0
      vertex 24 0 0
    endloop
  endfacet
  facet normal 0 0 -1
    outer loop
      vertex 24 0 0
      vertex 0 24 0
      vertex 24 24 0
    endloop
  endfacet
  facet normal 0 1 0
    outer loop
      vertex 10.0365 24 14.1317
      vertex 0 24 24
      vertex 24 24 24
    endloop
  endfacet
  facet normal 0 1 0
    outer loop
      vertex 11.7135 24 14.6766
      vertex 10.0365 24 14.1317
      vertex 24 24 24
    endloop
  endfacet
  facet normal 0 1 0
    outer loop
      vertex 0 24 0
      vertex 0 24 24
      vertex 10.0365 24 12.3683
    endloop
  endfacet
  facet normal 0 1 0
    outer loop
      vertex 0 24 0
      vertex 10.0365 24 12.3683
      vertex 24 24 0
    endloop
  endfacet
  facet normal 0 1 0
    outer loop
      vertex 12.75 24 13.25
      vertex 24 24 0
      vertex 11.7135 24 11.8234
    endloop
  endfacet
  facet normal 0 1 0
    outer loop
      vertex 10.0365 24 12.3683
      vertex 11.7135 24 11.8234
      vertex 24 24 0
    endloop
  endfacet
  facet normal 0 1 0
    outer loop
      vertex 24 24 0
      vertex 12.75 24 13.25
      vertex 24 24 24
    endloop
  endfacet
  facet normal 0 1 0
    outer loop
      vertex 12.75 24 13.25
      vertex 11.7135 24 14.6766
      vertex 24 24 24
    endloop
  endfacet
  facet normal 0 1 0
    outer loop
      vertex 10.0365 24 12.3683
      vertex 0 24 24
      vertex 10.0365 24 14.1317
    endloop
  endfacet
  facet normal 0 0 1
    outer loop
      vertex 2 2 24
      vertex 0 0 24
      vertex 24 0 24
    endloop
  endfacet
  facet normal 0 0 1
    outer loop
      vertex 2 22 24
      vertex 0 24 24
      vertex 2 2 24
    endloop
  endfacet
  facet normal 0 0 1
    outer loop
      vertex 22 2 24
      vertex 2 2 24
      vertex 24 0 24
    endloop
  endfacet
  facet normal 0 0 1
    outer loop
      vertex 0 24 24
      vertex 0 0 24
      vertex 2 2 24
    endloop
  endfacet
  facet normal 0 0 1
    outer loop
      vertex 24 24 24
      vertex 0 24 24
      vertex 2 22 24
    endloop
  endfacet
  facet normal 0 0 1
    outer loop
      vertex 24 24 24
      vertex 22 22 24
      vertex 24 0 24
    endloop
  endfacet
  facet normal 0 0 1
    outer loop
      vertex 24 24 24
      vertex 2 22 24
      vertex 22 22 24
    endloop
  endfacet
  facet normal 0 0 1
    outer loop
      vertex 22 22 24
      vertex 22 2 24
      vertex 24 0 24
    endloop
  endfacet
  facet normal 2.22045e-016 0 -1
    outer loop
      vertex 2 12.1317 14.4635
      vertex 2 10.3683 14.4635
      vertex 0 12.1317 14.4635
    endloop
  endfacet
  facet normal 2.22045e-016 0 -1
    outer loop
      vertex 0 12.1317 14.4635
      vertex 2 10.3683 14.4635
      vertex 0 10.3683 14.4635
    endloop
  endfacet
  facet normal 6.86156e-017 0.951056 -0.309017
    outer loop
      vertex 2 10.3683 14.4635
      vertex 2 9.82341 12.7865
      vertex 0 10.3683 14.4635
    endloop
  endfacet
  facet normal 6.86156e-017 0.951056 -0.309017
    outer loop
      vertex 0 10.3683 14.4635
      vertex 2 9.82341 12.7865
      vertex 0 9.82341 12.7865
    endloop
  endfacet
  facet normal 6.86156e-017 -0.951056 -0.309017
    outer loop
      vertex 0 12.6766 12.7865
      vertex 2 12.6766 12.7865
      vertex 2 12.1317 14.4635
    endloop
  endfacet
  facet normal 6.86156e-017 -0.951056 -0.309017
    outer loop
      vertex 0 12.1317 14.4635
      vertex 0 12.6766 12.7865
      vertex 2 12.1317 14.4635
    endloop
  endfacet
  facet normal -1.79638e-016 -0.587785 0.809017
    outer loop
      vertex 2 11.25 11.75
      vertex 2 12.6766 12.7865
      vertex 0 12.6766 12.7865
    endloop
  endfacet
  facet normal -1.79638e-016 -0.587785 0.809017
    outer loop
      vertex 0 11.25 11.75
      vertex 2 11.25 11.75
      vertex 0 12.6766 12.7865
    endloop
  endfacet
  facet normal -1.79638e-016 0.587785 0.809017
    outer loop
      vertex 2 9.82341 12.7865
      vertex 2 11.25 11.75
      vertex 0 11.25 11.75
    endloop
  endfacet
  facet normal -1.79638e-016 0.587785 0.809017
    outer loop
      vertex 0 9.82341 12.7865
      vertex 2 9.82341 12.7865
      vertex 0 11.25 11.75
    endloop
  endfacet
  facet normal 1 0 0
    outer loop
      vertex 24 9.82341 12.7865
      vertex 24 0 0
      vertex 24 24 0
    endloop
  endfacet
  facet normal 1 0 0
    outer loop
      vertex 24 11.25 11.75
      vertex 24 9.82341 12.7865
      vertex 24 24 0
    endloop
  endfacet
  facet normal 1 0 0
    outer loop
      vertex 24 0 24
      vertex 24 0 0
      vertex 24 9.82341 12.7865
    endloop
  endfacet
  facet normal 1 0 0
    outer loop
      vertex 24 24 24
      vertex 24 0 24
      vertex 24 10.3683 14.4635
    endloop
  endfacet
  facet normal 1 0 0
    outer loop
      vertex 24 24 24
      vertex 24 12.1317 14.4635
      vertex 24 24 0
    endloop
  endfacet
  facet normal 1 0 0
    outer loop
      vertex 24 24 24
      vertex 24 10.3683 14.4635
      vertex 24 12.1317 14.4635
    endloop
  endfacet
  facet normal 1 0 0
    outer loop
      vertex 24 12.1317 14.4635
      vertex 24 12.6766 12.7865
      vertex 24 24 0
    endloop
  endfacet
  facet normal 1 0 0
    outer loop
      vertex 24 12.6766 12.7865
      vertex 24 11.25 11.75
      vertex 24 24 0
    endloop
  endfacet
  facet normal 1 0 0
    outer loop
      vertex 24 9.82341 12.7865
      vertex 24 10.3683 14.4635
      vertex 24 0 24
    endloop
  endfacet
  facet normal 1 0 0
    outer loop
      vertex 10.0365 2 12.3683
      vertex 10.0365 2 14.1317
      vertex 10.0365 0 14.1317
    endloop
  endfacet
  facet normal 1 0 0
    outer loop
      vertex 10.0365 0 12.3683
      vertex 10.0365 2 12.3683
      vertex 10.0365 0 14.1317
    endloop
  endfacet
  facet normal 0.309017 2.11177e-016 0.951056
    outer loop
      vertex 11.7135 0 11.8234
      vertex 11.7135 2 11.8234
      vertex 10.0365 2 12.3683
    endloop
  endfacet
  facet normal 0.309017 2.11177e-016 0.951056
    outer loop
      vertex 10.0365 0 12.3683
      vertex 11.7135 0 11.8234
      vertex 10.0365 2 12.3683
    endloop
  endfacet
  facet normal -0.809017 1.30515e-016 0.587785
    outer loop
      vertex 12.75 2 13.25
      vertex 11.7135 2 11.8234
      vertex 12.75 0 13.25
    endloop
  endfacet
  facet normal -0.809017 1.30515e-016 0.587785
    outer loop
      vertex 12.75 0 13.25
      vertex 11.7135 2 11.8234
      vertex 11.7135 0 11.8234
    endloop
  endfacet
  facet normal -0.809017 -1.30515e-016 -0.587785
    outer loop
      vertex 12.75 2 13.25
      vertex 12.75 0 13.25
      vertex 11.7135 2 14.6766
    endloop
  endfacet
  facet normal -0.809017 -1.30515e-016 -0.587785
    outer loop
      vertex 11.7135 2 14.6766
      vertex 12.75 0 13.25
      vertex 11.7135 0 14.6766
    endloop
  endfacet
  facet normal 0.309017 -2.11177e-016 -0.951056
    outer loop
      vertex 11.7135 2 14.6766
      vertex 11.7135 0 14.6766
      vertex 10.0365 2 14.1317
    endloop
  endfacet
  facet normal 0.309017 -2.11177e-016 -0.951056
    outer loop
      vertex 10.0365 2 14.1317
      vertex 11.7135 0 14.6766
      vertex 10.0365 0 14.1317
    endloop
  endfacet
  facet normal 1 0 0
    outer loop
      vertex 10.0365 24 12.3683
      vertex 10.0365 24 14.1317
      vertex 10.0365 22 14.1317
    endloop
  endfacet
  facet normal 1 0 0
    outer loop
      vertex 10.0365 22 12.3683
      vertex 10.0365 24 12.3683
      vertex 10.0365 22 14.1317
    endloop
  endfacet
  facet normal 0.309017 -2.11177e-016 -0.951056
    outer loop
      vertex 11.7135 24 14.6766
      vertex 11.7135 22 14.6766
      vertex 10.0365 24 14.1317
    endloop
  endfacet
  facet normal 0.309017 -2.11177e-016 -0.951056
    outer loop
      vertex 10.0365 24 14.1317
      vertex 11.7135 22 14.6766
      vertex 10.0365 22 14.1317
    endloop
  endfacet
  facet normal -0.809017 -1.30515e-016 -0.587785
    outer loop
      vertex 12.75 24 13.25
      vertex 12.75 22 13.25
      vertex 11.7135 24 14.6766
    endloop
  endfacet
  facet normal -0.809017 -1.30515e-016 -0.587785
    outer loop
      vertex 11.7135 24 14.6766
      vertex 12.75 22 13.25
      vertex 11.7135 22 14.6766
    endloop
  endfacet
  facet normal -0.809017 1.30515e-016 0.587785
    outer loop
      vertex 12.75 24 13.25
      vertex 11.7135 24 11.8234
      vertex 12.75 22 13.25
    endloop
  endfacet
  facet normal -0.809017 1.30515e-016 0.587785
    outer loop
      vertex 12.75 22 13.25
      vertex 11.7135 24 11.8234
      vertex 11.7135 22 11.8234
    endloop
  endfacet
  facet normal 0.309017 2.11177e-016 0.951056
    outer loop
      vertex 11.7135 22 11.8234
      vertex 11.7135 24 11.8234
      vertex 10.0365 24 12.3683
    endloop
  endfacet
  facet normal 0.309017 2.11177e-016 0.951056
    outer loop
      vertex 10.0365 22 12.3683
      vertex 11.7135 22 11.8234
      vertex 10.0365 24 12.3683
    endloop
  endfacet
  facet normal 1 0 0
    outer loop
      vertex 2 22 6
      vertex 2 22 24
      vertex 2 2 24
    endloop
  endfacet
  facet normal 1 0 0
    outer loop
      vertex 2 12.1317 14.4635
      vertex 2 22 6
      vertex 2 2 24
    endloop
  endfacet
  facet normal 1 0 0
    outer loop
      vertex 2 2 6
      vertex 2 10.3683 14.4635
      vertex 2 2 24
    endloop
  endfacet
  facet normal 1 0 0
    outer loop
      vertex 2 10.3683 14.4635
      vertex 2 12.1317 14.4635
      vertex 2 2 24
    endloop
  endfacet
  facet normal 1 0 0
    outer loop
      vertex 2 12.6766 12.7865
      vertex 2 22 6
      vertex 2 12.1317 14.4635
    endloop
  endfacet
  facet normal 1 0 0
    outer loop
      vertex 2 2 6
      vertex 2 22 6
      vertex 2 11.25 11.75
    endloop
  endfacet
  facet normal 1 0 0
    outer loop
      vertex 2 2 6
      vertex 2 9.82341 12.7865
      vertex 2 10.3683 14.4635
    endloop
  endfacet
  facet normal 1 0 0
    outer loop
      vertex 2 2 6
      vertex 2 11.25 11.75
      vertex 2 9.82341 12.7865
    endloop
  endfacet
  facet normal 1 0 0
    outer loop
      vertex 2 12.6766 12.7865
      vertex 2 11.25 11.75
      vertex 2 22 6
    endloop
  endfacet
  facet normal 0 1 0
    outer loop
      vertex 22 2 24
      vertex 22 2 6
      vertex 2 2 24
    endloop
  endfacet
  facet normal 0 1 0
    outer loop
      vertex 10.0365 2 12.3683
      vertex 22 2 6
      vertex 2 2 6
    endloop
  endfacet
  facet normal 0 1 0
    outer loop
      vertex 11.7135 2 11.8234
      vertex 22 2 6
      vertex 10.0365 2 12.3683
    endloop
  endfacet
  facet normal 0 1 0
    outer loop
      vertex 2 2 24
      vertex 10.0365 2 12.3683
      vertex 2 2 6
    endloop
  endfacet
  facet normal 0 1 0
    outer loop
      vertex 12.75 2 13.25
      vertex 22 2 6
      vertex 11.7135 2 11.8234
    endloop
  endfacet
  facet normal 0 1 0
    outer loop
      vertex 10.0365 2 14.1317
      vertex 2 2 24
      vertex 11.7135 2 14.6766
    endloop
  endfacet
  facet normal 0 1 0
    outer loop
      vertex 11.7135 2 14.6766
      vertex 22 2 6
      vertex 12.75 2 13.25
    endloop
  endfacet
  facet normal 0 1 0
    outer loop
      vertex 2 2 24
      vertex 22 2 6
      vertex 11.7135 2 14.6766
    endloop
  endfacet
  facet normal 0 1 0
    outer loop
      vertex 10.0365 2 12.3683
      vertex 2 2 24
      vertex 10.0365 2 14.1317
    endloop
  endfacet
  facet normal -1 0 0
    outer loop
      vertex 22 22 24
      vertex 22 22 6
      vertex 22 2 24
    endloop
  endfacet
  facet normal -1 0 0
    outer loop
      vertex 22 11.25 11.75
      vertex 22 22 6
      vertex 22 2 6
    endloop
  endfacet
  facet normal -1 0 0
    outer loop
      vertex 22 10.3683 14.4635
      vertex 22 2 24
      vertex 22 12.1317 14.4635
    endloop
  endfacet
  facet normal -1 0 0
    outer loop
      vertex 22 2 24
      vertex 22 9.82341 12.7865
      vertex 22 2 6
    endloop
  endfacet
  facet normal -1 0 0
    outer loop
      vertex 22 9.82341 12.7865
      vertex 22 11.25 11.75
      vertex 22 2 6
    endloop
  endfacet
  facet normal -1 0 0
    outer loop
      vertex 22 12.1317 14.4635
      vertex 22 22 6
      vertex 22 12.6766 12.7865
    endloop
  endfacet
  facet normal -1 0 0
    outer loop
      vertex 22 2 24
      vertex 22 22 6
      vertex 22 12.1317 14.4635
    endloop
  endfacet
  facet normal -1 0 0
    outer loop
      vertex 22 2 24
      vertex 22 10.3683 14.4635
      vertex 22 9.82341 12.7865
    endloop
  endfacet
  facet normal -1 0 0
    outer loop
      vertex 22 12.6766 12.7865
      vertex 22 22 6
      vertex 22 11.25 11.75
    endloop
  endfacet
  facet normal 0 -1 0
    outer loop
      vertex 22 22 6
      vertex 22 22 24
      vertex 2 22 24
    endloop
  endfacet
  facet normal 0 -1 0
    outer loop
      vertex 11.7135 22 14.6766
      vertex 22 22 6
      vertex 2 22 24
    endloop
  endfacet
  facet normal 0 -1 0
    outer loop
      vertex 2 22 6
      vertex 10.0365 22 14.1317
      vertex 2 22 24
    endloop
  endfacet
  facet normal 0 -1 0
    outer loop
      vertex 10.0365 22 14.1317
      vertex 11.7135 22 14.6766
      vertex 2 22 24
    endloop
  endfacet
  facet normal 0 -1 0
    outer loop
      vertex 12.75 22 13.25
      vertex 22 22 6
      vertex 11.7135 22 14.6766
    endloop
  endfacet
  facet normal 0 -1 0
    outer loop
      vertex 2 22 6
      vertex 22 22 6
      vertex 11.7135 22 11.8234
    endloop
  endfacet
  facet normal 0 -1 0
    outer loop
      vertex 2 22 6
      vertex 10.0365 22 12.3683
      vertex 10.0365 22 14.1317
    endloop
  endfacet
  facet normal 0 -1 0
    outer loop
      vertex 2 22 6
      vertex 11.7135 22 11.8234
      vertex 10.0365 22 12.3683
    endloop
  endfacet
  facet normal 0 -1 0
    outer loop
      vertex 12.75 22 13.25
      vertex 11.7135 22 11.8234
      vertex 22 22 6
    endloop
  endfacet
  facet normal -1.79638e-016 0.587785 0.809017
    outer loop
      vertex 24 9.82341 12.7865
      vertex 24 11.25 11.75
      vertex 22 11.25 11.75
    endloop
  endfacet
  facet normal -1.79638e-016 0.587785 0.809017
    outer loop
      vertex 22 9.82341 12.7865
      vertex 24 9.82341 12.7865
      vertex 22 11.25 11.75
    endloop
  endfacet
  facet normal 6.86156e-017 0.951056 -0.309017
    outer loop
      vertex 24 10.3683 14.4635
      vertex 24 9.82341 12.7865
      vertex 22 10.3683 14.4635
    endloop
  endfacet
  facet normal 6.86156e-017 0.951056 -0.309017
    outer loop
      vertex 22 10.3683 14.4635
      vertex 24 9.82341 12.7865
      vertex 22 9.82341 12.7865
    endloop
  endfacet
  facet normal -1.79638e-016 -0.587785 0.809017
    outer loop
      vertex 24 11.25 11.75
      vertex 24 12.6766 12.7865
      vertex 22 12.6766 12.7865
    endloop
  endfacet
  facet normal -1.79638e-016 -0.587785 0.809017
    outer loop
      vertex 22 11.25 11.75
      vertex 24 11.25 11.75
      vertex 22 12.6766 12.7865
    endloop
  endfacet
  facet normal 6.86156e-017 -0.951056 -0.309017
    outer loop
      vertex 22 12.6766 12.7865
      vertex 24 12.6766 12.7865
      vertex 24 12.1317 14.4635
    endloop
  endfacet
  facet normal 6.86156e-017 -0.951056 -0.309017
    outer loop
      vertex 22 12.1317 14.4635
      vertex 22 12.6766 12.7865
      vertex 24 12.1317 14.4635
    endloop
  endfacet
  facet normal 2.22045e-016 0 -1
    outer loop
      vertex 24 12.1317 14.4635
      vertex 24 10.3683 14.4635
      vertex 22 12.1317 14.4635
    endloop
  endfacet
  facet normal 2.22045e-016 0 -1
    outer loop
      vertex 22 12.1317 14.4635
      vertex 24 10.3683 14.4635
      vertex 22 10.3683 14.4635
    endloop
  endfacet
  facet normal 0 0 1
    outer loop
      vertex 22 2 6
      vertex 22 22 6
      vertex 2 22 6
    endloop
  endfacet
  facet normal 0 0 1
    outer loop
      vertex 2 2 6
      vertex 22 2 6
      vertex 2 22 6
    endloop
  endfacet
endsolid OpenSCAD_Model
