solid OpenSCAD_Model
  facet normal -1 0 0
    outer loop
      vertex 0 0 0
      vertex 0 0 22
      vertex 0 22 0
    endloop
  endfacet
  facet normal -1 0 0
    outer loop
      vertex 0 22 0
      vertex 0 0 22
      vertex 0 22 22
    endloop
  endfacet
  facet normal 0 -1 0
    outer loop
      vertex 0 0 22
      vertex 0 0 0
      vertex 22 0 0
    endloop
  endfacet
  facet normal 0 -1 0
    outer loop
      vertex 22 0 22
      vertex 0 0 22
      vertex 22 0 0
    endloop
  endfacet
  facet normal 0 0 -1
    outer loop
      vertex 0 0 0
      vertex 0 22 0
      vertex 22 0 0
    endloop
  endfacet
  facet normal 0 0 -1
    outer loop
      vertex 22 0 0
      vertex 0 22 0
      vertex 22 22 0
    endloop
  endfacet
  facet normal 0 1 0
    outer loop
      vertex 0 22 0
      vertex 0 22 22
      vertex 22 22 0
    endloop
  endfacet
  facet normal 0 1 0
    outer loop
      vertex 22 22 0
      vertex 0 22 22
      vertex 22 22 22
    endloop
  endfacet
  facet normal 0 0 1
    outer loop
      vertex 1 1 22
      vertex 0 0 22
      vertex 22 0 22
    endloop
  endfacet
  facet normal 0 0 1
    outer loop
      vertex 1 21 22
      vertex 0 22 22
      vertex 1 1 22
    endloop
  endfacet
  facet normal 0 0 1
    outer loop
      vertex 21 1 22
      vertex 1 1 22
      vertex 22 0 22
    endloop
  endfacet
  facet normal 0 0 1
    outer loop
      vertex 0 22 22
      vertex 0 0 22
      vertex 1 1 22
    endloop
  endfacet
  facet normal 0 0 1
    outer loop
      vertex 22 22 22
      vertex 0 22 22
      vertex 1 21 22
    endloop
  endfacet
  facet normal 0 0 1
    outer loop
      vertex 22 22 22
      vertex 21 21 22
      vertex 22 0 22
    endloop
  endfacet
  facet normal 0 0 1
    outer loop
      vertex 22 22 22
      vertex 1 21 22
      vertex 21 21 22
    endloop
  endfacet
  facet normal 0 0 1
    outer loop
      vertex 21 21 22
      vertex 21 1 22
      vertex 22 0 22
    endloop
  endfacet
  facet normal 1 0 0
    outer loop
      vertex 22 0 22
      vertex 22 0 0
      vertex 22 22 0
    endloop
  endfacet
  facet normal 1 0 0
    outer loop
      vertex 22 22 22
      vertex 22 0 22
      vertex 22 22 0
    endloop
  endfacet
  facet normal 1 0 0
    outer loop
      vertex 1 21 3
      vertex 1 21 22
      vertex 1 1 22
    endloop
  endfacet
  facet normal 1 0 0
    outer loop
      vertex 1 1 3
      vertex 1 21 3
      vertex 1 1 22
    endloop
  endfacet
  facet normal 0 1 0
    outer loop
      vertex 21 1 22
      vertex 21 1 3
      vertex 1 1 22
    endloop
  endfacet
  facet normal 0 1 0
    outer loop
      vertex 1 1 22
      vertex 21 1 3
      vertex 1 1 3
    endloop
  endfacet
  facet normal -1 0 0
    outer loop
      vertex 21 21 22
      vertex 21 21 3
      vertex 21 1 22
    endloop
  endfacet
  facet normal -1 0 0
    outer loop
      vertex 21 1 22
      vertex 21 21 3
      vertex 21 1 3
    endloop
  endfacet
  facet normal 0 -1 0
    outer loop
      vertex 21 21 3
      vertex 21 21 22
      vertex 1 21 22
    endloop
  endfacet
  facet normal 0 -1 0
    outer loop
      vertex 1 21 3
      vertex 21 21 3
      vertex 1 21 22
    endloop
  endfacet
  facet normal 0 0 1
    outer loop
      vertex 21 1 3
      vertex 21 21 3
      vertex 1 21 3
    endloop
  endfacet
  facet normal 0 0 1
    outer loop
      vertex 1 1 3
      vertex 21 1 3
      vertex 1 21 3
    endloop
  endfacet
endsolid OpenSCAD_Model
